<svg xmlns="http://www.w3.org/2000/svg" width="781" height="474" viewBox="0 0 781 474" version="1.1"><path d="M 0.320 6 C 0.320 9.575, 0.502 11.037, 0.723 9.250 C 0.945 7.462, 0.945 4.537, 0.723 2.750 C 0.502 0.962, 0.320 2.425, 0.320 6 M 165.492 237 C 165.492 367.625, 165.608 421.062, 165.750 355.750 C 165.892 290.437, 165.892 183.562, 165.750 118.250 C 165.608 52.937, 165.492 106.375, 165.492 237 M 305.250 0.735 C 307.863 0.941, 312.137 0.941, 314.750 0.735 C 317.363 0.529, 315.225 0.360, 310 0.360 C 304.775 0.360, 302.637 0.529, 305.250 0.735 M 327.264 1.718 C 328.784 1.947, 331.034 1.941, 332.264 1.704 C 333.494 1.467, 332.250 1.279, 329.500 1.286 C 326.750 1.294, 325.744 1.488, 327.264 1.718 M 129.310 10.500 C 129.315 13.800, 129.502 15.029, 129.725 13.232 C 129.947 11.435, 129.943 8.735, 129.715 7.232 C 129.486 5.729, 129.304 7.200, 129.310 10.500 M 1.320 25 C 1.320 28.575, 1.502 30.038, 1.723 28.250 C 1.945 26.462, 1.945 23.538, 1.723 21.750 C 1.502 19.962, 1.320 21.425, 1.320 25 M 128.310 28.500 C 128.315 31.800, 128.502 33.029, 128.725 31.232 C 128.947 29.435, 128.943 26.735, 128.715 25.232 C 128.486 23.729, 128.304 25.200, 128.310 28.500 M 412.500 31 C 416.320 34.850, 419.671 38, 419.946 38 C 420.221 38, 417.320 34.850, 413.500 31 C 409.680 27.150, 406.329 24, 406.054 24 C 405.779 24, 408.680 27.150, 412.500 31 M 2.300 43 C 2.300 46.025, 2.487 47.263, 2.716 45.750 C 2.945 44.237, 2.945 41.763, 2.716 40.250 C 2.487 38.737, 2.300 39.975, 2.300 43 M 423.635 44 C 428.155 50.684, 429.962 52.692, 427.392 48.174 C 426.351 46.345, 424.243 43.420, 422.708 41.674 C 420.689 39.380, 420.946 40.024, 423.635 44 M 127.310 47.500 C 127.315 50.800, 127.502 52.029, 127.725 50.232 C 127.947 48.435, 127.943 45.735, 127.715 44.232 C 127.486 42.729, 127.304 44.200, 127.310 47.500 M 3.310 61.500 C 3.315 64.800, 3.502 66.029, 3.725 64.232 C 3.947 62.435, 3.943 59.735, 3.715 58.232 C 3.486 56.729, 3.304 58.200, 3.310 61.500 M 126.310 65.500 C 126.315 68.800, 126.502 70.029, 126.725 68.232 C 126.947 66.435, 126.943 63.735, 126.715 62.232 C 126.486 60.729, 126.304 62.200, 126.310 65.500 M 4.310 80.500 C 4.315 83.800, 4.502 85.029, 4.725 83.232 C 4.947 81.435, 4.943 78.735, 4.715 77.232 C 4.486 75.729, 4.304 77.200, 4.310 80.500 M 125.310 84.500 C 125.315 87.800, 125.502 89.029, 125.725 87.232 C 125.947 85.435, 125.943 82.735, 125.715 81.232 C 125.486 79.729, 125.304 81.200, 125.310 84.500 M 5.310 98.500 C 5.315 101.800, 5.502 103.029, 5.725 101.232 C 5.947 99.435, 5.943 96.735, 5.715 95.232 C 5.486 93.729, 5.304 95.200, 5.310 98.500 M 124.310 102.500 C 124.315 105.800, 124.502 107.029, 124.725 105.232 C 124.947 103.435, 124.943 100.735, 124.715 99.232 C 124.486 97.729, 124.304 99.200, 124.310 102.500 M 6.310 117.500 C 6.315 120.800, 6.502 122.029, 6.725 120.232 C 6.947 118.435, 6.943 115.735, 6.715 114.232 C 6.486 112.729, 6.304 114.200, 6.310 117.500 M 443.360 122 C 443.360 127.225, 443.529 129.363, 443.735 126.750 C 443.941 124.138, 443.941 119.862, 443.735 117.250 C 443.529 114.638, 443.360 116.775, 443.360 122 M 123.320 121 C 123.320 124.575, 123.502 126.037, 123.723 124.250 C 123.945 122.463, 123.945 119.537, 123.723 117.750 C 123.502 115.963, 123.320 117.425, 123.320 121 M 329.389 129.500 C 329.390 136.650, 329.550 139.444, 329.742 135.708 C 329.935 131.973, 329.934 126.123, 329.739 122.708 C 329.545 119.294, 329.387 122.350, 329.389 129.500 M 627.272 128 C 627.272 130.475, 627.467 131.488, 627.706 130.250 C 627.944 129.012, 627.944 126.987, 627.706 125.750 C 627.467 124.513, 627.272 125.525, 627.272 128 M 7.320 136 C 7.320 139.575, 7.502 141.037, 7.723 139.250 C 7.945 137.463, 7.945 134.537, 7.723 132.750 C 7.502 130.963, 7.320 132.425, 7.320 136 M 122.310 139.500 C 122.315 142.800, 122.502 144.029, 122.725 142.232 C 122.947 140.435, 122.943 137.735, 122.715 136.232 C 122.486 134.729, 122.304 136.200, 122.310 139.500 M 443.328 145.500 C 443.333 149.350, 443.513 150.802, 443.730 148.728 C 443.946 146.653, 443.943 143.503, 443.722 141.728 C 443.501 139.952, 443.324 141.650, 443.328 145.500 M 8.310 154.500 C 8.315 157.800, 8.502 159.029, 8.725 157.232 C 8.947 155.435, 8.943 152.735, 8.715 151.232 C 8.486 149.729, 8.304 151.200, 8.310 154.500 M 328.272 155 C 328.272 157.475, 328.467 158.488, 328.706 157.250 C 328.944 156.012, 328.944 153.988, 328.706 152.750 C 328.467 151.512, 328.272 152.525, 328.272 155 M 121.320 158 C 121.320 161.575, 121.502 163.037, 121.723 161.250 C 121.945 159.463, 121.945 156.537, 121.723 154.750 C 121.502 152.963, 121.320 154.425, 121.320 158 M 9.310 172.500 C 9.315 175.800, 9.502 177.029, 9.725 175.232 C 9.947 173.435, 9.943 170.735, 9.715 169.232 C 9.486 167.729, 9.304 169.200, 9.310 172.500 M 120.310 176.500 C 120.315 179.800, 120.502 181.029, 120.725 179.232 C 120.947 177.435, 120.943 174.735, 120.715 173.232 C 120.486 171.729, 120.304 173.200, 120.310 176.500 M 10.320 191 C 10.320 194.575, 10.502 196.037, 10.723 194.250 C 10.945 192.463, 10.945 189.537, 10.723 187.750 C 10.502 185.963, 10.320 187.425, 10.320 191 M 302.250 185.716 C 303.762 185.945, 306.238 185.945, 307.750 185.716 C 309.262 185.487, 308.025 185.300, 305 185.300 C 301.975 185.300, 300.738 185.487, 302.250 185.716 M 119.310 194.500 C 119.315 197.800, 119.502 199.029, 119.725 197.232 C 119.947 195.435, 119.943 192.735, 119.715 191.232 C 119.486 189.729, 119.304 191.200, 119.310 194.500 M 424.485 197.779 C 422.827 199.276, 420.352 201.307, 418.985 202.294 C 416.592 204.021, 416.622 204.021, 419.795 202.301 C 421.607 201.319, 424.279 199.275, 425.732 197.758 C 429.107 194.235, 428.399 194.248, 424.485 197.779 M 11.320 209 C 11.320 212.575, 11.502 214.037, 11.723 212.250 C 11.945 210.463, 11.945 207.537, 11.723 205.750 C 11.502 203.963, 11.320 205.425, 11.320 209 M 118.310 213.500 C 118.315 216.800, 118.502 218.029, 118.725 216.232 C 118.947 214.435, 118.943 211.735, 118.715 210.232 C 118.486 208.729, 118.304 210.200, 118.310 213.500 M 12.310 227.500 C 12.315 230.800, 12.502 232.029, 12.725 230.232 C 12.947 228.435, 12.943 225.735, 12.715 224.232 C 12.486 222.729, 12.304 224.200, 12.310 227.500 M 117.320 232 C 117.320 235.575, 117.502 237.037, 117.723 235.250 C 117.945 233.463, 117.945 230.537, 117.723 228.750 C 117.502 226.963, 117.320 228.425, 117.320 232 M 430.500 242 C 432.648 244.200, 434.631 246, 434.906 246 C 435.181 246, 433.648 244.200, 431.500 242 C 429.352 239.800, 427.369 238, 427.094 238 C 426.819 238, 428.352 239.800, 430.500 242 M 13.310 246.500 C 13.315 249.800, 13.502 251.029, 13.725 249.232 C 13.947 247.435, 13.943 244.735, 13.715 243.232 C 13.486 241.729, 13.304 243.200, 13.310 246.500 M 116.310 250.500 C 116.315 253.800, 116.502 255.029, 116.725 253.232 C 116.947 251.435, 116.943 248.735, 116.715 247.232 C 116.486 245.729, 116.304 247.200, 116.310 250.500 M 14.320 265 C 14.320 268.575, 14.502 270.038, 14.723 268.250 C 14.945 266.462, 14.945 263.538, 14.723 261.750 C 14.502 259.962, 14.320 261.425, 14.320 265 M 115.310 268.500 C 115.315 271.800, 115.502 273.029, 115.725 271.232 C 115.947 269.435, 115.943 266.735, 115.715 265.232 C 115.486 263.729, 115.304 265.200, 115.310 268.500 M 15.310 283.500 C 15.315 286.800, 15.502 288.029, 15.725 286.232 C 15.947 284.435, 15.943 281.735, 15.715 280.232 C 15.486 278.729, 15.304 280.200, 15.310 283.500 M 114.310 287.500 C 114.315 290.800, 114.502 292.029, 114.725 290.232 C 114.947 288.435, 114.943 285.735, 114.715 284.232 C 114.486 282.729, 114.304 284.200, 114.310 287.500 M 329.447 326 C 329.447 343.875, 329.582 351.188, 329.748 342.250 C 329.914 333.313, 329.914 318.688, 329.748 309.750 C 329.582 300.813, 329.447 308.125, 329.447 326 M 16.320 302 C 16.320 305.575, 16.502 307.038, 16.723 305.250 C 16.945 303.462, 16.945 300.538, 16.723 298.750 C 16.502 296.962, 16.320 298.425, 16.320 302 M 113.320 306 C 113.320 309.575, 113.502 311.038, 113.723 309.250 C 113.945 307.462, 113.945 304.538, 113.723 302.750 C 113.502 300.962, 113.320 302.425, 113.320 306 M 452.455 342.500 C 452.455 363.950, 452.587 372.583, 452.749 361.684 C 452.911 350.785, 452.910 333.235, 452.748 322.684 C 452.587 312.133, 452.454 321.050, 452.455 342.500 M 17.310 320.500 C 17.315 323.800, 17.502 325.029, 17.725 323.232 C 17.947 321.435, 17.943 318.735, 17.715 317.232 C 17.486 315.729, 17.304 317.200, 17.310 320.500 M 112.310 324.500 C 112.315 327.800, 112.502 329.029, 112.725 327.232 C 112.947 325.435, 112.943 322.735, 112.715 321.232 C 112.486 319.729, 112.304 321.200, 112.310 324.500 M 18.310 338.500 C 18.315 341.800, 18.502 343.029, 18.725 341.232 C 18.947 339.435, 18.943 336.735, 18.715 335.232 C 18.486 333.729, 18.304 335.200, 18.310 338.500 M 111.320 343 C 111.320 346.575, 111.502 348.038, 111.723 346.250 C 111.945 344.462, 111.945 341.538, 111.723 339.750 C 111.502 337.962, 111.320 339.425, 111.320 343 M 120.462 426.500 C 120.463 452.900, 120.592 463.556, 120.749 450.181 C 120.907 436.805, 120.907 415.205, 120.749 402.181 C 120.591 389.156, 120.462 400.100, 120.462 426.500 M 648.272 399 C 648.272 401.475, 648.467 402.488, 648.706 401.250 C 648.944 400.012, 648.944 397.988, 648.706 396.750 C 648.467 395.512, 648.272 396.525, 648.272 399 M 649.272 412 C 649.272 414.475, 649.467 415.488, 649.706 414.250 C 649.944 413.012, 649.944 410.988, 649.706 409.750 C 649.467 408.512, 649.272 409.525, 649.272 412 M 650.272 425 C 650.272 427.475, 650.467 428.488, 650.706 427.250 C 650.944 426.012, 650.944 423.988, 650.706 422.750 C 650.467 421.512, 650.272 422.525, 650.272 425 M 599.272 433 C 599.272 435.475, 599.467 436.488, 599.706 435.250 C 599.944 434.012, 599.944 431.988, 599.706 430.750 C 599.467 429.512, 599.272 430.525, 599.272 433 M 440.202 435.522 C 439.005 437.985, 438.236 440, 438.493 440 C 439.170 440, 443.211 431.877, 442.758 431.425 C 442.549 431.215, 441.398 433.059, 440.202 435.522 M 651.272 438 C 651.272 440.475, 651.467 441.488, 651.706 440.250 C 651.944 439.012, 651.944 436.988, 651.706 435.750 C 651.467 434.512, 651.272 435.525, 651.272 438 M 652.272 451 C 652.272 453.475, 652.467 454.488, 652.706 453.250 C 652.944 452.012, 652.944 449.988, 652.706 448.750 C 652.467 447.512, 652.272 448.525, 652.272 451 M 653.286 463.500 C 653.294 466.250, 653.488 467.256, 653.718 465.736 C 653.947 464.216, 653.941 461.966, 653.704 460.736 C 653.467 459.506, 653.279 460.750, 653.286 463.500 M 357.250 472.716 C 358.762 472.945, 361.238 472.945, 362.750 472.716 C 364.262 472.487, 363.025 472.300, 360 472.300 C 356.975 472.300, 355.738 472.487, 357.250 472.716 M 330.287 473.740 C 333.469 473.939, 338.419 473.937, 341.287 473.736 C 344.154 473.535, 341.550 473.372, 335.500 473.374 C 329.450 473.376, 327.104 473.541, 330.287 473.740" stroke="none" fill="#4d4d4d" fill-rule="evenodd"/><path d="M 1 5.267 C 1 8.163, 3.227 51.476, 5.949 101.517 C 8.670 151.557, 12.727 227.150, 14.964 269.500 C 17.200 311.850, 19.282 348.867, 19.588 351.760 L 20.146 357.020 65.305 356.760 L 110.464 356.500 119.617 187 C 124.650 93.775, 129.017 13.563, 129.319 8.750 L 129.870 0 65.435 0 L 1 0 1 5.267 M 166 237.006 L 166 474.228 258.750 473.687 C 350.164 473.154, 366.027 472.626, 386.942 469.418 C 425.330 463.530, 441.995 446.315, 449.710 404.576 C 451.735 393.620, 452.737 308.524, 451.015 293.715 C 448.486 271.954, 442.317 255.243, 432.926 244.706 C 423.906 234.586, 408.603 226.060, 389.561 220.544 C 384.645 219.120, 380.437 217.770, 380.210 217.543 C 379.983 217.317, 381.756 216.627, 384.149 216.011 C 400.785 211.728, 415.703 205.107, 424.135 198.262 C 438.151 186.885, 443.261 168.938, 443.145 131.500 C 442.984 79.625, 433.963 51.338, 410.529 29.223 C 396.447 15.933, 381.225 9.073, 357 5.098 C 333.775 1.287, 322.831 0.823, 243.750 0.299 L 166 -0.216 166 237.006 M 531.591 2.750 C 531.279 4.263, 527.847 29.575, 523.965 59 C 520.082 88.425, 509.943 164.925, 501.433 229 C 492.924 293.075, 482.365 372.725, 477.970 406 C 473.575 439.275, 469.719 468.188, 469.402 470.250 L 468.824 474 532.412 474 L 596 474 596.001 471.750 C 596.002 470.512, 597.575 451.500, 599.497 429.500 C 601.419 407.500, 602.994 389.387, 602.996 389.250 C 602.998 389.113, 613.125 389, 625.500 389 C 642.803 389, 648.013 389.289, 648.057 390.250 C 648.088 390.938, 649.560 409.950, 651.328 432.500 L 654.542 473.500 717.248 473.758 L 779.953 474.015 779.455 471.258 C 779.181 469.741, 773.327 430.700, 766.446 384.500 C 759.566 338.300, 751.010 280.925, 747.435 257 C 737.311 189.262, 730.702 144.997, 719.965 73 C 714.510 36.425, 709.791 5.037, 709.478 3.250 L 708.909 -0 620.534 -0 L 532.159 0 531.591 2.750 M 289 133.456 L 289 186.211 300.750 185.818 C 318.620 185.220, 323.637 182.291, 326.695 170.670 C 329.037 161.768, 330.504 128.802, 329.207 114.219 C 326.895 88.222, 321.748 82.428, 299.942 81.278 L 289 80.700 289 133.456 M 625 105.358 C 625 105.738, 622.987 121.001, 620.527 139.275 C 612.293 200.446, 605.443 257.905, 603.036 286 C 602.447 292.875, 601.776 299.962, 601.546 301.750 L 601.126 305 623.151 305 L 645.176 305 644.619 301.250 C 642.038 283.881, 633.958 201.152, 628.482 136.044 C 627.074 119.293, 625.714 105.381, 625.461 105.127 C 625.207 104.874, 625 104.978, 625 105.358 M 289 326.500 L 289 393 293.912 393 C 301.290 393, 313.616 390.362, 318.294 387.781 C 323.374 384.979, 326.388 379.880, 328.170 371.075 C 330.031 361.875, 330.051 290.413, 328.195 280.602 C 326.257 270.360, 324.038 266.689, 318.304 264.246 C 312.942 261.960, 301.747 260, 294.058 260 L 289 260 289 326.500 M 10 426.500 L 10 474 65 474 L 120 474 120 426.500 L 120 379 65 379 L 10 379 10 426.500" stroke="none" fill="#040404" fill-rule="evenodd"/></svg>