<?xml version="1.0" standalone="no"?>
<!DOCTYPE svg PUBLIC "-//W3C//DTD SVG 20010904//EN"
 "http://www.w3.org/TR/2001/REC-SVG-20010904/DTD/svg10.dtd">
<svg version="1.0" xmlns="http://www.w3.org/2000/svg"
 width="300.000000pt" height="182.000000pt" viewBox="0 0 300.000000 182.000000"
 preserveAspectRatio="xMidYMid meet">
<metadata>
Created by potrace 1.10, written by Peter Selinger 2001-2011
</metadata>
<g transform="translate(0.000000,182.000000) scale(0.100000,-0.100000)"
fill="#000000" stroke="none">
<path d="M5 1773 c3 -27 19 -316 35 -643 17 -327 33 -614 36 -637 l5 -43 169
0 169 0 5 43 c3 23 19 308 36 632 16 325 32 614 35 643 l5 52 -250 0 -251 0 6
-47z"/>
<path d="M640 911 l0 -911 318 0 c325 0 501 9 585 30 62 16 128 75 155 138 26
61 42 190 42 342 -1 299 -52 402 -226 457 l-55 17 59 21 c145 52 175 98 180
274 9 254 -49 399 -187 475 -92 50 -155 57 -528 63 l-343 5 0 -911z m596 566
c28 -33 39 -112 30 -223 -6 -87 -19 -129 -42 -138 -8 -3 -36 -8 -64 -12 l-50
-7 0 208 0 208 52 -5 c40 -4 57 -12 74 -31z m5 -686 c10 -12 21 -46 24 -76 11
-84 1 -326 -14 -353 -15 -28 -67 -52 -111 -52 l-30 0 0 256 0 256 57 -4 c42
-4 61 -10 74 -27z"/>
<path d="M1926 928 c-65 -491 -120 -901 -123 -910 -4 -17 12 -18 240 -18 l244
0 14 163 14 162 88 3 c78 2 87 1 88 -15 0 -10 6 -83 12 -163 l12 -145 238 -3
c211 -2 237 -1 237 13 0 9 -56 393 -125 853 -69 460 -127 855 -131 877 -12 83
25 75 -353 75 l-337 0 -118 -892z m519 42 c14 -146 28 -277 31 -292 l6 -28
-86 0 c-75 0 -86 2 -86 18 0 54 75 667 87 712 7 27 6 34 48 -410z"/>
<path d="M40 180 l0 -180 210 0 210 0 0 180 0 180 -210 0 -210 0 0 -180z"/>
</g>
</svg>
